<svg width="24" height="24" viewBox="0 0 24 24" fill="currentColor" xmlns="http://www.w3.org/2000/svg">
<path fill-rule="evenodd" clip-rule="evenodd" d="M14.444 3.2403L13.4082 3.51784L12.0327 3.92515C11.6687 3.53897 11.1524 3.2979 10.5798 3.2979H8.75684C8.23342 3.2979 7.75705 3.49933 7.40102 3.82891C7.04498 3.49933 6.5686 3.29789 6.04518 3.29789H4.15458C3.05201 3.29789 2.1582 4.19169 2.1582 5.29426V18.5996C2.1582 19.7022 3.05201 20.596 4.15458 20.596H6.04518C6.5686 20.596 7.04497 20.3946 7.401 20.065C7.75704 20.3946 8.23342 20.596 8.75684 20.596H10.5798C10.7486 20.596 10.9125 20.5751 11.0691 20.5356C10.8257 20.0691 10.6316 19.5727 10.494 19.0534H8.75684C8.50626 19.0534 8.30312 18.8502 8.30312 18.5996V7.91311H11.0335V13.9277C11.6714 12.6725 12.6651 11.6285 13.8818 10.9286L13.2313 8.50097L13.2312 8.5005L16.0692 7.728L16.6818 10.0143C16.9438 9.98549 17.21 9.97072 17.4797 9.97072C17.7498 9.97072 18.0165 9.98555 18.2789 10.0144L16.8335 4.61987C16.5546 3.57908 15.4848 2.96142 14.444 3.2403ZM12.5761 6.2497L12.7747 6.93193L15.6465 6.15025L15.3434 5.01914C15.285 4.8013 15.0611 4.67202 14.8432 4.73039L13.8269 5.00272L12.5761 5.3731V6.2497ZM8.30312 6.27971H11.0335V5.29427C11.0335 5.04369 10.8303 4.84055 10.5798 4.84055H8.75684C8.50626 4.84055 8.30312 5.04369 8.30312 5.29427V6.27971ZM6.4989 5.29426V6.27971H3.70086V5.29426C3.70086 5.04368 3.904 4.84054 4.15458 4.84054H6.04518C6.29576 4.84054 6.4989 5.04368 6.4989 5.29426ZM3.70086 18.5996V7.91311H6.4989V18.5996C6.4989 18.8502 6.29576 19.0534 6.04518 19.0534H4.15458C3.904 19.0534 3.70086 18.8502 3.70086 18.5996Z"/>
<path fill-rule="evenodd" clip-rule="evenodd" d="M17.4954 22.6427C20.5024 22.6427 22.9401 20.2051 22.9401 17.1981C22.9401 14.1911 20.5024 11.7534 17.4954 11.7534C14.4884 11.7534 12.0508 14.1911 12.0508 17.1981C12.0508 20.2051 14.4884 22.6427 17.4954 22.6427ZM18.3209 14.7253C18.3209 14.2697 17.9516 13.9003 17.4959 13.9003C17.0403 13.9003 16.6709 14.2697 16.6709 14.7253V16.3754H15.0208C14.5652 16.3754 14.1958 16.7448 14.1958 17.2004C14.1958 17.6561 14.5652 18.0255 15.0208 18.0255H16.6709V19.6755C16.6709 20.1312 17.0403 20.5005 17.4959 20.5005C17.9516 20.5005 18.3209 20.1312 18.3209 19.6755V18.0255H19.971C20.4267 18.0255 20.796 17.6561 20.796 17.2004C20.796 16.7448 20.4267 16.3754 19.971 16.3754H18.3209V14.7253Z"/>
</svg>
