<svg width="24" height="24" viewBox="0 0 24 24" fill="currentColor" xmlns="http://www.w3.org/2000/svg">
<path d="M10.5362 5.39387C10.8709 5.05914 11.4137 5.05914 11.7484 5.39387C12.0831 5.72861 12.0831 6.27132 11.7484 6.60606L7.21144 11.1428H18.8566C19.2962 11.1428 19.6584 11.4737 19.708 11.9L19.7137 12C19.7137 12.4734 19.33 12.8571 18.8566 12.8571H7.21144L11.7484 17.3939C12.0574 17.7029 12.0811 18.1891 11.8197 18.5253L11.7484 18.6061C11.4137 18.9408 10.8709 18.9408 10.5362 18.6061L4.53621 12.6061L4.47346 12.5361C4.47148 12.5336 4.4695 12.5311 4.46754 12.5286C4.46283 12.5227 4.45809 12.5165 4.45344 12.5102C4.43815 12.4895 4.42377 12.4682 4.41036 12.4462C4.40396 12.4359 4.39787 12.4254 4.39202 12.4149C4.38269 12.3979 4.37376 12.3804 4.36543 12.3626C4.3586 12.3481 4.35218 12.3332 4.34621 12.3183C4.33943 12.3013 4.33326 12.2844 4.32762 12.2672C4.3235 12.2544 4.31953 12.2412 4.31588 12.228C4.31073 12.2095 4.30628 12.1909 4.30244 12.1721C4.29947 12.1571 4.29684 12.1422 4.2946 12.1272C4.28838 12.086 4.28516 12.0434 4.28516 12L4.28856 12.0765C4.28678 12.0565 4.2857 12.0365 4.28532 12.0166L4.28516 12C4.28516 11.9945 4.28521 11.989 4.28531 11.9835C4.28567 11.9639 4.28676 11.9437 4.28856 11.9235C4.2901 11.9058 4.29211 11.889 4.2946 11.8723C4.29684 11.8577 4.29947 11.8428 4.30251 11.8279C4.30628 11.809 4.31073 11.7904 4.31577 11.7721C4.31953 11.7587 4.3235 11.7455 4.32779 11.7324C4.33326 11.7156 4.33943 11.6986 4.3461 11.6819C4.35218 11.6667 4.3586 11.6519 4.36545 11.6372C4.37376 11.6195 4.38269 11.602 4.39219 11.5849C4.39787 11.5745 4.40396 11.564 4.4103 11.5536C4.42377 11.5317 4.43815 11.5104 4.45342 11.4898C4.47828 11.4563 4.50587 11.4242 4.53621 11.3939L4.46754 11.4713C4.48887 11.4441 4.51181 11.4183 4.53621 11.3939L10.5362 5.39387Z"/>
</svg>
