<svg width="25" height="24" viewBox="0 0 25 24" fill="none" xmlns="http://www.w3.org/2000/svg">
<path d="M12.4995 21.6165L12.4037 21.4728C11.7387 20.4752 11.4062 19.9765 10.9668 19.6154C10.5779 19.2957 10.1298 19.0559 9.64806 18.9096C9.10393 18.7443 8.50448 18.7443 7.30558 18.7443H5.98937C4.91701 18.7443 4.38083 18.7443 3.97125 18.5356C3.61097 18.3521 3.31805 18.0592 3.13448 17.6989C2.92578 17.2893 2.92578 16.7531 2.92578 15.6808V7.44737C2.92578 6.37502 2.92578 5.83884 3.13448 5.42926C3.31805 5.06897 3.61097 4.77606 3.97125 4.59248C4.38083 4.38379 4.91701 4.38379 5.98937 4.38379H6.37231C8.51703 4.38379 9.58938 4.38379 10.4086 4.80118C11.1291 5.16832 11.715 5.75416 12.0821 6.47472C12.4995 7.29389 12.4995 8.36625 12.4995 10.511M12.4995 21.6165V10.511M12.4995 21.6165L12.5953 21.4728C13.2603 20.4752 13.5928 19.9765 14.0321 19.6154C14.4211 19.2957 14.8692 19.0559 15.3509 18.9096C15.895 18.7443 16.4945 18.7443 17.6934 18.7443H19.0096C20.082 18.7443 20.6181 18.7443 21.0277 18.5356C21.388 18.3521 21.6809 18.0592 21.8645 17.6989C22.0732 17.2893 22.0732 16.7531 22.0732 15.6808V7.44737C22.0732 6.37502 22.0732 5.83884 21.8645 5.42926C21.6809 5.06897 21.388 4.77606 21.0277 4.59248C20.6181 4.38379 20.082 4.38379 19.0096 4.38379H18.6267C16.4819 4.38379 15.4096 4.38379 14.5904 4.80118C13.8699 5.16832 13.284 5.75416 12.9169 6.47472C12.4995 7.29389 12.4995 8.36625 12.4995 10.511" stroke="currentColor" stroke-width="1.75" stroke-linecap="round" stroke-linejoin="round"/>
</svg>
