<svg width="25" height="24" viewBox="0 0 25 24" fill="none" xmlns="http://www.w3.org/2000/svg">
<path d="M16.3571 4.59579C16.0011 4.45101 15.6323 4.32573 15.2525 4.22156C14.3896 3.98492 13.4701 3.85718 12.5158 3.85718C7.55394 3.85718 3.53157 7.31058 3.53157 11.5706C3.53157 13.0854 4.04019 14.4982 4.91929 15.6821C4.91929 17.1794 4.12865 18.7105 3.53206 20.0465C3.41989 20.295 3.61753 20.5817 3.88485 20.5712C6.22455 20.4793 7.90282 19.8361 8.91859 18.6408C10.02 19.0545 11.2367 19.2839 12.5158 19.2839C17.4776 19.2839 21.5 15.8305 21.5 11.5706C21.5 11.1602 21.4627 10.7574 21.3908 10.3644" stroke="currentColor" stroke-width="1.71429" stroke-linecap="round" stroke-linejoin="round"/>
<rect x="17.6426" y="5.14331" width="3.42857" height="3.42857" rx="1.71429" fill="currentColor"/>
<path fill-rule="evenodd" clip-rule="evenodd" d="M12.5151 4.71404C7.89928 4.71404 4.38798 7.90168 4.38798 11.5703C4.38798 12.8877 4.8291 14.1236 5.60672 15.1708C5.71645 15.3186 5.7757 15.4978 5.7757 15.6818C5.7757 16.5749 5.54117 17.4406 5.2527 18.2215C5.07101 18.7133 4.85516 19.2027 4.64905 19.6574C6.41139 19.4702 7.56754 18.9059 8.2647 18.0855C8.49884 17.8099 8.88071 17.711 9.21921 17.8381C10.224 18.2154 11.3385 18.4265 12.5151 18.4265C17.1308 18.4265 20.6421 15.2389 20.6421 11.5703C20.6421 11.2121 20.6096 10.8608 20.5469 10.5183C20.4617 10.0526 20.7702 9.60611 21.2358 9.52093C21.7015 9.43575 22.148 9.7442 22.2332 10.2099C22.3143 10.6533 22.3564 11.1078 22.3564 11.5703C22.3564 16.4216 17.823 20.1408 12.5151 20.1408C11.3381 20.1408 10.2067 19.9609 9.15677 19.6295C7.91833 20.7853 6.11893 21.3409 3.91777 21.4274C3.02111 21.4626 2.37392 20.53 2.74937 19.6952C2.82629 19.5229 2.90389 19.3527 2.98104 19.1835C3.21736 18.665 3.44941 18.156 3.64463 17.6275C3.86415 17.0332 4.01365 16.4717 4.05181 15.9428C3.18024 14.6736 2.6737 13.1758 2.6737 11.5703C2.6737 6.71892 7.20714 2.99976 12.5151 2.99976C13.5459 2.99976 14.5417 3.13775 15.4784 3.39466C15.8908 3.50776 16.2918 3.64391 16.6793 3.80151C17.1178 3.97984 17.3287 4.4799 17.1504 4.91841C16.9721 5.35692 16.472 5.56784 16.0335 5.3895C15.7091 5.25755 15.3723 5.14315 15.025 5.0479C14.2361 4.83153 13.3928 4.71404 12.5151 4.71404ZM4.31259 20.3988L4.31398 20.3957C4.31352 20.3968 4.31306 20.3978 4.31259 20.3988Z"/>
<path d="M17.6418 6.85732C17.6418 5.91054 18.4094 5.14303 19.3561 5.14303C20.3029 5.14303 21.0704 5.91054 21.0704 6.85732C21.0704 7.80409 20.3029 8.5716 19.3561 8.5716C18.4094 8.5716 17.6418 7.80409 17.6418 6.85732Z" fill="currentColor"/>
</svg>
