<svg width="24" height="24" viewBox="0 0 24 24" fill="currentColor" xmlns="http://www.w3.org/2000/svg">
<path d="M8.61133 5.67603L20.9998 5.67603" stroke="currentColor" stroke-width="1.91459" stroke-linecap="round" stroke-linejoin="round"/>
<path d="M4.10742 7.57764L4.10742 3.77441" stroke="currentColor" stroke-width="1.35147" stroke-linecap="round" stroke-linejoin="round"/>
<path d="M5.05786 13.876L3.72673 13.876C3.41166 13.876 3.15625 13.6206 3.15625 13.3055L3.15625 12.5448C3.15625 12.2298 3.41166 11.9744 3.72673 11.9744L4.48738 11.9744C4.80245 11.9744 5.05786 11.719 5.05786 11.4039L5.05786 10.6432C5.05786 10.3282 4.80245 10.0728 4.48738 10.0728L3.15625 10.0728" stroke="currentColor" stroke-width="1.23605" stroke-linecap="round" stroke-linejoin="round"/>
<path d="M3.15625 16.8301L4.48738 16.8301C4.80245 16.8301 5.05786 17.0855 5.05786 17.4006L5.05786 20.0628C5.05786 20.3779 4.80245 20.6333 4.48738 20.6333L3.15625 20.6333" stroke="currentColor" stroke-width="1.23605" stroke-linecap="round" stroke-linejoin="round"/>
<path d="M5.05786 18.7317L3.15625 18.7317" stroke="currentColor" stroke-width="1.23605" stroke-linecap="round" stroke-linejoin="round"/>
<path d="M8.61133 12.1211L20.9998 12.1211" stroke="currentColor" stroke-width="1.91459" stroke-linecap="round" stroke-linejoin="round"/>
<path d="M8.61133 18.8784L20.9998 18.8784" stroke="currentColor" stroke-width="1.91459" stroke-linecap="round" stroke-linejoin="round"/>
</svg>
