<svg width="24" height="24" viewBox="0 0 24 24" fill="currentColor" xmlns="http://www.w3.org/2000/svg">
<path d="M5.78599 10.2856C6.85111 10.2856 7.71456 11.1491 7.71456 12.2142C7.71456 13.2793 6.85111 14.1428 5.78599 14.1428C4.72087 14.1428 3.85742 13.2793 3.85742 12.2142C3.85742 11.1491 4.72087 10.2856 5.78599 10.2856ZM11.786 10.2856C12.8511 10.2856 13.7146 11.1491 13.7146 12.2142C13.7146 13.2793 12.8511 14.1428 11.786 14.1428C10.7209 14.1428 9.85742 13.2793 9.85742 12.2142C9.85742 11.1491 10.7209 10.2856 11.786 10.2856ZM17.786 10.2856C18.8511 10.2856 19.7146 11.1491 19.7146 12.2142C19.7146 13.2793 18.8511 14.1428 17.786 14.1428C16.7209 14.1428 15.8574 13.2793 15.8574 12.2142C15.8574 11.1491 16.7209 10.2856 17.786 10.2856Z"/>
</svg>
