<svg width="24" height="24" viewBox="0 0 24 24" fill="currentColor" xmlns="http://www.w3.org/2000/svg">
<path d="M13.4638 5.39387C13.1291 5.05914 12.5863 5.05914 12.2516 5.39387C11.9169 5.72861 11.9169 6.27132 12.2516 6.60606L16.7886 11.1428H5.14342C4.70384 11.1428 4.34155 11.4737 4.29204 11.9L4.28627 12C4.28627 12.4734 4.67003 12.8571 5.14342 12.8571H16.7886L12.2516 17.3939C11.9426 17.7029 11.9189 18.1891 12.1803 18.5253L12.2516 18.6061C12.5863 18.9408 13.1291 18.9408 13.4638 18.6061L19.4638 12.6061L19.5265 12.5361C19.5285 12.5336 19.5305 12.5311 19.5325 12.5286C19.5372 12.5227 19.5419 12.5165 19.5466 12.5102C19.5619 12.4895 19.5762 12.4682 19.5896 12.4462C19.596 12.4359 19.6021 12.4254 19.608 12.4149C19.6173 12.3979 19.6262 12.3804 19.6346 12.3626C19.6414 12.3481 19.6478 12.3332 19.6538 12.3183C19.6606 12.3013 19.6667 12.2844 19.6724 12.2672C19.6765 12.2544 19.6805 12.2412 19.6841 12.228C19.6893 12.2095 19.6937 12.1909 19.6976 12.1721C19.7005 12.1571 19.7032 12.1422 19.7054 12.1272C19.7116 12.086 19.7148 12.0434 19.7148 12L19.7114 12.0765C19.7132 12.0565 19.7143 12.0365 19.7147 12.0166L19.7148 12C19.7148 11.9945 19.7148 11.989 19.7147 11.9835C19.7143 11.9639 19.7132 11.9437 19.7114 11.9235C19.7099 11.9058 19.7079 11.889 19.7054 11.8723C19.7032 11.8577 19.7005 11.8428 19.6975 11.8279C19.6937 11.809 19.6893 11.7904 19.6842 11.7721C19.6805 11.7587 19.6765 11.7455 19.6722 11.7324C19.6667 11.7156 19.6606 11.6986 19.6539 11.6819C19.6478 11.6667 19.6414 11.6519 19.6346 11.6372C19.6262 11.6195 19.6173 11.602 19.6078 11.5849C19.6021 11.5745 19.596 11.564 19.5897 11.5536C19.5762 11.5317 19.5619 11.5104 19.5466 11.4898C19.5217 11.4563 19.4941 11.4242 19.4638 11.3939L19.5325 11.4713C19.5111 11.4441 19.4882 11.4183 19.4638 11.3939L13.4638 5.39387Z"/>
</svg>
