<svg width="24" height="24" viewBox="0 0 24 24" fill="currentColor" xmlns="http://www.w3.org/2000/svg">
<path d="M12.7222 2.21181C13.9301 2.24941 14.7155 2.91395 15.1296 4.16671L15.1952 4.38095L15.246 4.57274C15.2644 4.64662 15.2874 4.72526 15.3144 4.80695L15.3717 4.96631L15.4057 4.98331L15.4747 4.96051L15.6083 4.90932L15.7642 4.8415C17.178 4.1833 18.2656 4.30545 19.1512 5.27868L19.2764 5.42351L20.0966 6.44001C20.8275 7.40236 20.8054 8.43097 20.0924 9.54119L19.9672 9.72699L19.8501 9.88713C19.8033 9.94928 19.7556 10.0182 19.7082 10.0922L19.6373 10.2069L19.6037 10.2643L19.6077 10.2843L19.6994 10.3448L19.8259 10.4212L19.9793 10.5045C21.3684 11.2134 21.9417 12.1457 21.7205 13.4407L21.6835 13.6282L21.4394 14.6864C21.2813 15.3712 21.1572 15.6955 20.6686 16.1403C20.1941 16.5725 19.6526 16.7508 18.9371 16.81L18.7171 16.8243L18.5188 16.8306C18.4419 16.832 18.3592 16.8368 18.2726 16.8449L18.0917 16.8663L18.1049 17.0087L18.1182 17.1045L18.1505 17.2832C18.4738 18.8089 18.1101 19.8411 16.9626 20.4851L16.7933 20.5745L15.6184 21.145C14.5163 21.6407 13.519 21.3877 12.5976 20.4433L12.4447 20.2795L12.3151 20.1294C12.2645 20.0692 12.2075 20.0066 12.1453 19.9431L12.0484 19.8473L11.9987 19.8013L11.9071 19.8885L11.8021 19.9965L11.6844 20.1294C10.7319 21.263 9.72662 21.67 8.50816 21.1961L8.33263 21.1223L7.28121 20.6114L6.96888 20.4515C6.49282 20.1916 6.22567 19.9426 5.96461 19.3913C5.68977 18.8109 5.67131 18.2408 5.80454 17.5081L5.84896 17.2832C5.86486 17.2082 5.87877 17.1267 5.8904 17.0408L5.90872 16.8693L5.90472 16.8653L5.80104 16.8514L5.65455 16.8383L5.48066 16.8306C3.92137 16.8024 2.99741 16.2159 2.62804 14.9529L2.57904 14.7679L2.28746 13.4947C2.05238 12.3093 2.52321 11.3945 3.6507 10.7092L3.84469 10.5971L4.02016 10.5045C4.08893 10.4694 4.16141 10.4287 4.23595 10.3834L4.39072 10.2823L4.39472 10.2633L4.33217 10.1554L4.25136 10.0302L4.14938 9.88713C3.21161 8.64103 3.10497 7.55181 3.8728 6.48319L3.98844 6.33066L4.81221 5.31704C5.60155 4.40202 6.6123 4.20983 7.84649 4.67638L8.05426 4.76023L8.23525 4.8415C8.30334 4.8732 8.37785 4.90442 8.45714 4.93451L8.59272 4.98231L8.62872 4.96531L8.66235 4.87667L8.70743 4.73872L8.75347 4.57274C9.11258 3.13627 9.83773 2.32982 11.1428 2.22163L11.3332 2.21094L12.7222 2.21181ZM12.6662 4.01094H11.3332L11.1938 4.02115C10.9078 4.0584 10.7209 4.2128 10.5411 4.85282L10.4997 5.00931L10.4433 5.21507C10.3383 5.56758 10.1796 5.96427 9.97531 6.34941C9.57079 6.49437 9.18636 6.68154 8.82795 6.90752C8.40624 6.82203 8.00412 6.69663 7.66855 6.55793L7.31854 6.403C7.06963 6.29639 6.8832 6.24199 6.73546 6.22876L6.65127 6.22567C6.47366 6.22938 6.35638 6.30233 6.24309 6.41827L6.17515 6.49279L5.38601 7.46502L5.2913 7.59039C5.1079 7.85471 5.08047 8.09041 5.48617 8.66579L5.71436 8.98161C5.92627 9.29134 6.13875 9.6731 6.31224 10.083C6.18282 10.4673 6.09124 10.869 6.04218 11.2844C5.70831 11.5735 5.35254 11.8211 5.02853 12.0052L4.68626 12.1883C4.06939 12.5276 3.99073 12.7514 4.03969 13.0694L4.05307 13.1446L4.33336 14.365L4.37385 14.5168C4.46922 14.824 4.63806 14.9908 5.34124 15.0253L5.72859 15.0398C6.09953 15.0632 6.52655 15.1297 6.95168 15.2437C7.17645 15.5927 7.43643 15.9169 7.72783 16.2111C7.74443 16.7377 7.69574 17.2511 7.60986 17.6564C7.40875 18.6054 7.59597 18.7583 7.99335 18.9558L9.11944 19.5034C9.23876 19.5571 9.3454 19.5932 9.45621 19.5919L9.52334 19.5863C9.7044 19.5586 9.9048 19.4245 10.1936 19.1016L10.4514 18.8067C10.7081 18.5279 11.036 18.2323 11.4 17.9697L11.6979 17.9918L11.9997 17.9993L12.3016 17.9917L12.5997 17.9689C12.9634 18.2321 13.2913 18.5279 13.548 18.8067L13.8058 19.1016C14.1307 19.4649 14.3438 19.5892 14.5432 19.5919L14.6094 19.5883C14.6679 19.5815 14.7263 19.5651 14.7869 19.5422L14.88 19.5034L16.0061 18.9558L16.1449 18.8822C16.4442 18.7077 16.5656 18.4868 16.3896 17.6564C16.3037 17.2511 16.255 16.7377 16.2729 16.2112C16.563 15.9169 16.823 15.5927 17.048 15.242C17.4735 15.1293 17.9003 15.0631 18.271 15.0398L18.6582 15.0253C19.4696 14.9855 19.5695 14.7696 19.6661 14.365L19.9296 13.2236C20.0202 12.8176 20.025 12.5798 19.3132 12.1883L18.9709 12.0052C18.6469 11.821 18.2911 11.5733 17.9575 11.2837C17.9082 10.869 17.8166 10.4673 17.6867 10.0822C17.8606 9.67296 18.0732 9.29132 18.2851 8.98161L18.5133 8.66579C18.919 8.09041 18.8915 7.85471 18.7081 7.59039L18.6632 7.52872L17.8763 6.55469C17.7354 6.3833 17.6172 6.2606 17.4242 6.23192L17.3482 6.22567C17.1883 6.22233 16.9796 6.27506 16.6809 6.403L16.331 6.55787C15.9957 6.69645 15.5939 6.82159 15.1726 6.90595C14.8129 6.68136 14.4276 6.49382 14.0221 6.35031C13.8276 5.97986 13.6738 5.59934 13.569 5.25759L13.4556 4.84302C13.2637 4.16563 13.0633 4.03862 12.7424 4.0148L12.6662 4.01094ZM11.9997 8.19931C14.0984 8.19931 15.7997 9.90063 15.7997 11.9993C15.7997 14.098 14.0984 15.7993 11.9997 15.7993C9.90104 15.7993 8.19972 14.098 8.19972 11.9993C8.19972 9.90063 9.90104 8.19931 11.9997 8.19931ZM11.9997 9.99931C10.8952 9.99931 9.99972 10.8947 9.99972 11.9993C9.99972 13.1039 10.8952 13.9993 11.9997 13.9993C13.1043 13.9993 13.9997 13.1039 13.9997 11.9993C13.9997 10.8947 13.1043 9.99931 11.9997 9.99931Z"/>
</svg>
