<svg width="24" height="24" viewBox="0 0 24 24" fill="currentColor" xmlns="http://www.w3.org/2000/svg">
<path fill-rule="evenodd" clip-rule="evenodd" d="M17.3337 3.8499C16.3403 3.8499 15.5171 4.66819 15.5171 5.6999C15.5171 6.02356 15.5981 6.32622 15.74 6.5892C15.748 6.60137 15.7558 6.6138 15.7633 6.6265C15.7739 6.64439 15.7837 6.66251 15.7928 6.68082C16.1156 7.20505 16.6888 7.5499 17.3337 7.5499C18.3271 7.5499 19.1504 6.73161 19.1504 5.6999C19.1504 4.66819 18.3271 3.8499 17.3337 3.8499ZM14.813 8.17529C15.4504 8.83715 16.342 9.2499 17.3337 9.2499C19.2859 9.2499 20.8504 7.65053 20.8504 5.6999C20.8504 3.74928 19.2859 2.1499 17.3337 2.1499C15.3816 2.1499 13.8171 3.74928 13.8171 5.6999C13.8171 6.0484 13.867 6.38568 13.9602 6.70464L9.18775 9.52452C8.55041 8.86265 7.65875 8.4499 6.66706 8.4499C4.71493 8.4499 3.15039 10.0493 3.15039 11.9999C3.15039 13.9505 4.71493 15.5499 6.66706 15.5499C7.65893 15.5499 8.55073 15.137 9.1881 14.4749L13.9613 17.2912C13.8674 17.6113 13.8171 17.9499 13.8171 18.2999C13.8171 20.2505 15.3816 21.8499 17.3337 21.8499C19.2859 21.8499 20.8504 20.2505 20.8504 18.2999C20.8504 16.3493 19.2859 14.7499 17.3337 14.7499C16.3435 14.7499 15.4531 15.1614 14.8159 15.8215L10.0408 13.0042C10.1338 12.6853 10.1837 12.3482 10.1837 11.9999C10.1837 11.6514 10.1338 11.3141 10.0406 10.9952L14.813 8.17529ZM8.20796 11.019C8.21707 11.0373 8.22691 11.0554 8.23748 11.0733C8.24498 11.086 8.25277 11.0984 8.26082 11.1106C8.4027 11.3736 8.48372 11.6762 8.48372 11.9999C8.48372 12.3236 8.4027 12.6262 8.26081 12.8892C8.25266 12.9015 8.24479 12.9141 8.2372 12.927C8.22674 12.9447 8.217 12.9627 8.20796 12.9808C7.88515 13.505 7.31195 13.8499 6.66706 13.8499C5.67366 13.8499 4.85039 13.0316 4.85039 11.9999C4.85039 10.9682 5.67366 10.1499 6.66706 10.1499C7.31195 10.1499 7.88515 10.4948 8.20796 11.019ZM15.7156 17.4574C15.7359 17.4307 15.755 17.4025 15.7725 17.3728C15.7924 17.3391 15.8097 17.3045 15.8245 17.2694C16.1523 16.7731 16.7094 16.4499 17.3337 16.4499C18.3271 16.4499 19.1504 17.2682 19.1504 18.2999C19.1504 19.3316 18.3271 20.1499 17.3337 20.1499C16.3403 20.1499 15.5171 19.3316 15.5171 18.2999C15.5171 17.9953 15.5888 17.7093 15.7156 17.4574Z" />
</svg>
