<svg width="24" height="24" viewBox="0 0 24 24" fill="none" xmlns="http://www.w3.org/2000/svg">
<path d="M20 13.7778V15.7333C20 17.2268 20 17.9735 19.7094 18.544C19.4537 19.0457 19.0457 19.4537 18.544 19.7094C17.9735 20 17.2268 20 15.7333 20H13.7778M10.2222 4H8.26667C6.77319 4 6.02646 4 5.45603 4.29065C4.95426 4.54631 4.54631 4.95426 4.29065 5.45603C4 6.02646 4 6.77319 4 8.26667V10.2222M14.6667 9.33333L20 4M20 4H14.6667M20 4V9.33333M9.33333 14.6667L4 20M4 20H9.33333M4 20L4 14.6667" stroke="currentColor" stroke-width="1.77778" stroke-linecap="round" stroke-linejoin="round"/>
</svg>
