<svg width="24" height="24" viewBox="0 0 24 24" fill="currentColor" xmlns="http://www.w3.org/2000/svg">
<path fill-rule="evenodd" clip-rule="evenodd" d="M2.99922 2.13745C3.47556 2.13745 3.86172 2.52361 3.86172 2.99995V21C3.86172 21.4763 3.47556 21.8624 2.99922 21.8624C2.52287 21.8624 2.13672 21.4763 2.13672 21V2.99995C2.13672 2.52361 2.52287 2.13745 2.99922 2.13745ZM20.9992 2.13745C21.4756 2.13745 21.8617 2.52361 21.8617 2.99995V21C21.8617 21.4763 21.4756 21.8624 20.9992 21.8624C20.5229 21.8624 20.1367 21.4763 20.1367 21V2.99995C20.1367 2.52361 20.5229 2.13745 20.9992 2.13745ZM8.47765 8.28231C8.87399 8.54654 8.98109 9.08204 8.71686 9.47838L7.61082 11.1375H16.3876L15.2816 9.47838C15.0173 9.08204 15.1244 8.54654 15.5208 8.28231C15.9171 8.01808 16.4526 8.12518 16.7169 8.52152L18.7169 11.5215C18.91 11.8112 18.91 12.1887 18.7169 12.4784L16.7169 15.4784C16.4526 15.8747 15.9171 15.9818 15.5208 15.7176C15.1244 15.4534 15.0173 14.9179 15.2816 14.5215L16.3876 12.8625H7.61082L8.71686 14.5215C8.98109 14.9179 8.87399 15.4534 8.47765 15.7176C8.0813 15.9818 7.5458 15.8747 7.28158 15.4784L5.28158 12.4784C5.08843 12.1887 5.08843 11.8112 5.28158 11.5215L7.28158 8.52152C7.5458 8.12518 8.0813 8.01808 8.47765 8.28231Z"/>
</svg>
