<svg width="24" height="24" viewBox="0 0 24 24" fill="currentColor" xmlns="http://www.w3.org/2000/svg">
<path fill-rule="evenodd" clip-rule="evenodd" d="M2.62422 4.1377C2.14787 4.1377 1.76172 4.52385 1.76172 5.0002V7.0002C1.76172 7.47654 2.14787 7.8627 2.62422 7.8627C3.10056 7.8627 3.48672 7.47654 3.48672 7.0002V5.8627H15.7617V7.0002C15.7617 7.47654 16.1479 7.8627 16.6242 7.8627C17.1006 7.8627 17.4867 7.47654 17.4867 7.0002V5.0002C17.4867 4.77145 17.3958 4.55207 17.2341 4.39032C17.0723 4.22857 16.853 4.1377 16.6242 4.1377H2.62422Z" />
<path fill-rule="evenodd" clip-rule="evenodd" d="M6.7616 19.0002C6.7616 19.4765 7.14775 19.8627 7.6241 19.8627H11.6241C12.1004 19.8627 12.4866 19.4765 12.4866 19.0002C12.4866 18.5238 12.1004 18.1377 11.6241 18.1377H10.4866V5.0002C10.4866 4.52385 10.1004 4.1377 9.6241 4.1377C9.14775 4.1377 8.7616 4.52385 8.7616 5.0002V18.1377H7.6241C7.14775 18.1377 6.7616 18.5238 6.7616 19.0002Z" />
<path fill-rule="evenodd" clip-rule="evenodd" d="M12.9992 11.1375C12.5229 11.1375 12.1367 11.5236 12.1367 12V14C12.1367 14.4763 12.5229 14.8625 12.9992 14.8625C13.4756 14.8625 13.8617 14.4763 13.8617 14V12.8625H20.1367V14C20.1367 14.4763 20.5229 14.8625 20.9992 14.8625C21.4756 14.8625 21.8617 14.4763 21.8617 14V12C21.8617 11.7712 21.7708 11.5518 21.6091 11.3901C21.4473 11.2283 21.228 11.1375 20.9992 11.1375H12.9992Z"/>
<path fill-rule="evenodd" clip-rule="evenodd" d="M14.6367 19C14.6367 19.4763 15.0229 19.8625 15.4992 19.8625H18.4992C18.9756 19.8625 19.3617 19.4763 19.3617 19C19.3617 18.5236 18.9756 18.1375 18.4992 18.1375H17.8617V12C17.8617 11.5236 17.4756 11.1375 16.9992 11.1375C16.5229 11.1375 16.1367 11.5236 16.1367 12V18.1375H15.4992C15.0229 18.1375 14.6367 18.5236 14.6367 19Z"/>
</svg>
