<svg width="24" height="24" viewBox="0 0 24 24" fill="currentColor" xmlns="http://www.w3.org/2000/svg">
<path d="M7.19731 2.3999C7.5704 2.39992 7.90479 2.63011 8.03797 2.97861L10.7614 10.1048C10.7848 10.1527 10.8041 10.2029 10.8188 10.2551L10.8642 10.3738L9.91263 12.9261L9.32936 11.3999H5.06445L4.1374 13.8251C3.95992 14.2894 3.43966 14.5219 2.97537 14.3444C2.51108 14.1669 2.27857 13.6466 2.45606 13.1824L6.3566 2.97854C6.48982 2.63006 6.82423 2.39989 7.19731 2.3999ZM5.75253 9.5999H8.64145L7.19717 5.82073L5.75253 9.5999ZM15.2429 6.58756C15.1117 6.23542 14.7755 6.0019 14.3996 6.00188C14.0238 6.00186 13.6876 6.23536 13.5563 6.58749L8.6306 19.7999L8.10522 19.7999C7.60816 19.7999 7.20521 20.2028 7.2052 20.6999C7.20519 21.1969 7.60812 21.5999 8.10518 21.5999L11.1052 21.6C11.6022 21.6 12.0052 21.197 12.0052 20.7C12.0052 20.2029 11.6023 19.8 11.1052 19.8L10.5516 19.7999L11.4479 17.3958H17.3504L18.2464 19.7999H17.6997C17.2026 19.7999 16.7997 20.2029 16.7997 20.6999C16.7997 21.197 17.2026 21.5999 17.6997 21.5999L20.6993 21.5999C21.1964 21.5999 21.5993 21.197 21.5993 20.6999C21.5993 20.2029 21.1964 19.7999 20.6993 19.7999H20.1673L15.2429 6.58756ZM16.6795 15.5958H12.1189L14.3995 9.47858L16.6795 15.5958Z"/>
</svg>
