<svg width="24" height="24" viewBox="0 0 24 24" fill="currentColor" xmlns="http://www.w3.org/2000/svg">
<path fill-rule="evenodd" clip-rule="evenodd" d="M12.0006 2.85989C6.95274 2.85989 2.86063 6.95201 2.86063 11.9999C2.86063 17.0478 6.95274 21.1399 12.0006 21.1399C13.1825 21.1399 14.1406 20.1818 14.1406 18.9999V18.4999C14.1406 18.4786 14.1406 18.4576 14.1406 18.4369C14.1405 18.0335 14.1405 17.7481 14.1736 17.4961C14.4017 15.7639 15.7647 14.401 17.4968 14.1729C17.7488 14.1397 18.0342 14.1398 18.4376 14.1399C18.4583 14.1399 18.4793 14.1399 18.5006 14.1399H19.0006C20.1825 14.1399 21.1406 13.1818 21.1406 11.9999C21.1406 6.95201 17.0485 2.85989 12.0006 2.85989ZM1.14062 11.9999C1.14062 6.00208 6.00281 1.13989 12.0006 1.13989C17.9984 1.13989 22.8606 6.00208 22.8606 11.9999C22.8606 14.1317 21.1324 15.8599 19.0006 15.8599H18.5006C18.0089 15.8599 17.8463 15.8617 17.7213 15.8782C16.761 16.0046 16.0054 16.7603 15.8789 17.7206C15.8625 17.8455 15.8606 18.0081 15.8606 18.4999V18.9999C15.8606 21.1317 14.1324 22.8599 12.0006 22.8599C6.00281 22.8599 1.14062 17.9977 1.14062 11.9999ZM10.0006 6.85989C9.9233 6.85989 9.86063 6.92257 9.86063 6.99989C9.86063 7.07721 9.92331 7.13989 10.0006 7.13989C10.0779 7.13989 10.1406 7.07721 10.1406 6.99989C10.1406 6.92257 10.0779 6.85989 10.0006 6.85989ZM8.14062 6.99989C8.14062 5.97264 8.97337 5.13989 10.0006 5.13989C11.0279 5.13989 11.8606 5.97264 11.8606 6.99989C11.8606 8.02714 11.0279 8.85989 10.0006 8.85989C8.97337 8.85989 8.14062 8.02714 8.14062 6.99989ZM16.0006 7.85989C15.9233 7.85989 15.8606 7.92257 15.8606 7.99989C15.8606 8.07721 15.9233 8.13989 16.0006 8.13989C16.0779 8.13989 16.1406 8.07721 16.1406 7.99989C16.1406 7.92257 16.0779 7.85989 16.0006 7.85989ZM14.1406 7.99989C14.1406 6.97264 14.9734 6.13989 16.0006 6.13989C17.0279 6.13989 17.8606 6.97264 17.8606 7.99989C17.8606 9.02714 17.0279 9.85989 16.0006 9.85989C14.9734 9.85989 14.1406 9.02714 14.1406 7.99989ZM7.00063 11.8599C6.92331 11.8599 6.86063 11.9226 6.86063 11.9999C6.86063 12.0772 6.92331 12.1399 7.00063 12.1399C7.07794 12.1399 7.14062 12.0772 7.14062 11.9999C7.14062 11.9226 7.07794 11.8599 7.00063 11.8599ZM5.14062 11.9999C5.14062 10.9726 5.97338 10.1399 7.00063 10.1399C8.02787 10.1399 8.86063 10.9726 8.86063 11.9999C8.86063 13.0271 8.02787 13.8599 7.00063 13.8599C5.97338 13.8599 5.14062 13.0271 5.14062 11.9999Z"/>
</svg>
